<?xml version="1.0" encoding="utf-8"?>
<!-- Generator: Adobe Illustrator 17.0.0, SVG Export Plug-In . SVG Version: 6.00 Build 0)  -->
<!DOCTYPE svg PUBLIC "-//W3C//DTD SVG 1.1//EN" "http://www.w3.org/Graphics/SVG/1.1/DTD/svg11.dtd">
<svg version="1.1" id="Layer_1" xmlns="http://www.w3.org/2000/svg" xmlns:xlink="http://www.w3.org/1999/xlink" x="0px" y="0px"
	 width="450px" height="900px" viewBox="0 0 450 900" enable-background="new 0 0 450 900" xml:space="preserve" style="shape-rendering:geometricPrecision;">
<g transform="translate(0.5, 0.5)">
	<defs>
		<rect id="SVGID_1_" x="0" y="0" width="450" height="900"/>
	</defs>
	<clipPath id="SVGID_2_">
		<use xlink:href="#SVGID_1_"  overflow="visible"/>
	</clipPath>
	<path clip-path="url(#SVGID_2_)" fill="#16A64F" d="M969.912,450.258c0,334.975-197.255,607.501-457.949,607.501
		c-284.45,0-487.638-272.526-487.638-607.501c0-334.981,212.097-607.506,472.791-607.506
		C757.812-157.248,969.912,115.277,969.912,450.258 M106.361,450.258c0,276.851,166.386,502.089,405.602,502.089
		c215.463,0,375.91-225.238,375.91-502.089c0-276.858-175.292-502.097-390.757-502.097
		C281.656-51.839,106.361,173.4,106.361,450.258"/>
	<path clip-path="url(#SVGID_2_)" fill="#16A64F" d="M900.808,450.258c0,243.201-139.142,441.062-328.414,441.062
		c-213.026,0-358.103-197.861-358.103-441.062c0-243.204,153.985-441.07,343.259-441.07
		C746.826,9.188,900.808,207.054,900.808,450.258 M296.328,450.258c0,185.078,108.273,335.649,276.066,335.649
		c144.039,0,246.375-150.571,246.375-335.649c0-185.08-77.593-335.652-261.22-335.652
		C413.51,114.606,296.328,265.178,296.328,450.258"/>
	<path clip-path="url(#SVGID_2_)" fill="#16A64F" d="M837.921,450.258c0,151.424-95.875,274.624-213.726,274.624
		c-141.603,0-228.573-123.2-228.573-274.624c0-151.427,111.71-274.628,213.727-274.628
		C727.198,175.63,837.921,298.831,837.921,450.258 M492.502,450.258c0,93.303,59.078,169.211,131.693,169.211
		c72.613,0,131.693-75.908,131.693-169.211c0-93.306-59.08-169.213-131.693-169.213
		C551.581,281.045,492.502,356.953,492.502,450.258"/>
</g>
</svg>
