<?xml version="1.0" encoding="utf-8"?>
<!-- Generator: Adobe Illustrator 17.0.0, SVG Export Plug-In . SVG Version: 6.00 Build 0)  -->
<!DOCTYPE svg PUBLIC "-//W3C//DTD SVG 1.1//EN" "http://www.w3.org/Graphics/SVG/1.1/DTD/svg11.dtd">
<svg version="1.1" id="Layer_1" xmlns="http://www.w3.org/2000/svg" xmlns:xlink="http://www.w3.org/1999/xlink" x="0px" y="0px"
	 width="768px" height="280px" viewBox="0 0 768 280" enable-background="new 0 0 768 280" xml:space="preserve" style="shape-rendering:geometricPrecision;">
<g>
	<defs>
		<rect id="SVGID_1_" y="-103.146" width="768" height="383.146"/>
	</defs>
	<clipPath id="SVGID_2_">
		<use xlink:href="#SVGID_1_"  overflow="visible"/>
	</clipPath>
	<path clip-path="url(#SVGID_2_)" fill="#1AA84F" d="M384.912,817.476c-285.658,0-518.063-168.216-518.063-390.528
		c0-242.575,232.404-415.847,518.063-415.847c285.664,0,518.066,180.871,518.066,403.186S670.576,817.476,384.912,817.476
		 M384.912,81.06c-236.092,0-428.17,141.889-428.17,345.888c0,183.741,192.078,320.566,428.17,320.566
		c236.098,0,428.176-149.484,428.176-333.227C813.088,230.546,621.01,81.06,384.912,81.06"/>
	<path clip-path="url(#SVGID_2_)" fill="#1AA84F" d="M384.912,758.545c-207.396,0-376.127-118.657-376.127-280.062
		c0-181.665,168.73-305.384,376.127-305.384c207.398,0,376.134,131.314,376.134,292.724
		C761.046,627.232,592.311,758.545,384.912,758.545 M384.912,243.058c-157.83,0-286.234,92.334-286.234,235.425
		c0,122.832,128.404,210.101,286.234,210.101c157.832,0,286.236-66.169,286.236-222.761
		C671.148,342.989,542.744,243.058,384.912,243.058"/>
	<path clip-path="url(#SVGID_2_)" fill="#1AA84F" d="M384.912,662.277c-129.131,0-234.193-81.759-234.193-182.26
		c0-120.755,105.063-194.922,234.193-194.922c129.133,0,234.196,95.263,234.196,182.262
		C619.108,567.856,514.045,662.277,384.912,662.277 M384.912,367.712c-79.565,0-144.299,50.382-144.299,112.306
		s64.733,112.305,144.299,112.305c79.568,0,144.301-50.381,144.301-112.305S464.48,367.712,384.912,367.712"/>
</g>
</svg>
